<svg width="80" height="28" viewBox="0 0 80 28" fill="none" xmlns="http://www.w3.org/2000/svg">
<path d="M68.2398 24.2375H71.5872C72.855 24.2375 73.6235 23.9269 74.1618 23.2313C74.431 22.8813 74.8174 22.2644 74.8174 21.1006C74.8174 19.9369 74.4354 19.1231 73.6625 18.5413C73.2023 18.1913 72.5858 17.9988 71.5481 17.9988H68.2398V24.2375ZM63.8156 27.9956V5.60002H78.2734L77.0056 9.35814H68.2398V14.3194H71.8173C74.7002 14.3194 76.2024 15.015 77.2401 15.9075C78.0476 16.6031 79.4327 18.1563 79.4327 21.2144C79.4327 24.2375 78.0086 25.9044 76.819 26.7575C75.434 27.7244 73.9751 27.9956 71.0141 27.9956H63.8156ZM51.0119 27.9956V9.35814H44.5906V5.60002H62.4349L61.1671 9.35814H55.4709V27.9956H51.0119ZM33.2067 14.5513H35.7075C36.4759 14.5513 36.8624 14.5513 37.2444 14.4331C38.2821 14.1225 38.9377 13.195 38.9377 11.9131C38.9377 10.4038 38.243 9.74314 37.2444 9.43252C36.8233 9.31877 36.3978 9.27939 35.5512 9.27939H33.2067V14.5513ZM33.2457 18.4275V24.3163H36.324C37.2488 24.3163 38.0911 24.2375 38.7076 23.6556C39.3241 23.0738 39.5933 22.3388 39.5933 21.3675C39.5933 20.6325 39.4023 19.9325 39.0158 19.4294C38.3602 18.6156 37.5527 18.4231 36.172 18.4231H33.2457V18.4275ZM40.3574 16.0606V16.1394C41.2041 16.45 42.0116 16.9925 42.4328 17.3425C43.7396 18.4275 44.317 19.8625 44.317 21.7219C44.317 24.7844 42.7019 26.9938 40.0492 27.6894C39.2416 27.9213 38.395 28 36.8189 28H28.7825V5.60439H35.8985C37.3573 5.60439 38.3602 5.68315 39.246 5.91502C41.8206 6.61065 43.5138 8.39565 43.5138 11.2219C43.5138 12.7313 42.9755 14.0131 42.0898 14.8663C41.7033 15.2469 41.165 15.715 40.3574 16.0606Z" fill="#002882"/>
<path d="M25.0791 0H6.39241L5.04214 3.73187H23.7331L25.0791 0Z" fill="#00AAFF"/>
<path d="M23.0558 5.60002H4.36917L3.0189 9.33189H21.7099L23.0558 5.60002Z" fill="#00AAFF"/>
<path d="M21.0369 11.2H2.35027L1 14.9318H19.6866L21.0369 11.2Z" fill="#00AAFF"/>
</svg>
