<svg width="24" height="24" viewBox="0 0 24 24" fill="none" xmlns="http://www.w3.org/2000/svg">
<path d="M6.40939 5.49012C6.15555 5.23628 5.744 5.23628 5.49015 5.49012C5.23631 5.74397 5.23631 6.15552 5.49015 6.40936L11.0808 12L5.59062 17.4901C5.33678 17.744 5.33678 18.1555 5.59062 18.4094C5.84446 18.6632 6.25602 18.6632 6.50986 18.4094L12 12.9192L17.4902 18.4094C17.744 18.6632 18.1556 18.6632 18.4094 18.4094C18.6632 18.1555 18.6632 17.744 18.4094 17.4901L12.9192 12L18.5099 6.40936C18.7637 6.15552 18.7637 5.74397 18.5099 5.49012C18.256 5.23628 17.8445 5.23628 17.5906 5.49012L12 11.0807L6.40939 5.49012Z" fill="#7A7E88"/>
</svg>
